<svg xmlns="http://www.w3.org/2000/svg" xmlns:xlink="http://www.w3.org/1999/xlink" xmlns:lucid="lucid" width="735" height="423"><g transform="translate(-200 160)" lucid:page-tab-id="0_0"><path d="M460-134c0-3.3 2.7-6 6-6h203c3.3 0 6 2.7 6 6v51c0 3.3-2.7 6-6 6H466c-3.3 0-6-2.7-6-6z" stroke="#3d9fe2" stroke-width="3" fill-opacity="0"/><use xlink:href="#a" transform="matrix(1,0,0,1,465,-135) translate(31.635802469135797 31.02777777777778)"/><use xlink:href="#b" transform="matrix(1,0,0,1,465,-135) translate(85.83333333333333 31.02777777777778)"/><path d="M460 26c0-3.3 2.7-6 6-6h203c3.3 0 6 2.7 6 6v51c0 3.3-2.7 6-6 6H466c-3.3 0-6-2.7-6-6z" stroke="#0f8" stroke-width="3" fill-opacity="0"/><use xlink:href="#c" transform="matrix(1,0,0,1,465,25) translate(38.24074074074075 31.02777777777778)"/><use xlink:href="#d" transform="matrix(1,0,0,1,465,25) translate(90.77160493827162 31.02777777777778)"/><path d="M700 26c0-3.3 2.7-6 6-6h203c3.3 0 6 2.7 6 6v51c0 3.3-2.7 6-6 6H706c-3.3 0-6-2.7-6-6z" stroke="#0f8" stroke-width="3" fill-opacity="0"/><use xlink:href="#c" transform="matrix(1,0,0,1,705,25) translate(38.24074074074075 31.02777777777778)"/><use xlink:href="#d" transform="matrix(1,0,0,1,705,25) translate(90.77160493827162 31.02777777777778)"/><path d="M220 26c0-3.3 2.7-6 6-6h203c3.3 0 6 2.7 6 6v51c0 3.3-2.7 6-6 6H226c-3.3 0-6-2.7-6-6z" stroke="#0f8" stroke-width="3" fill-opacity="0"/><use xlink:href="#c" transform="matrix(1,0,0,1,225,25) translate(38.24074074074075 31.02777777777778)"/><use xlink:href="#d" transform="matrix(1,0,0,1,225,25) translate(90.77160493827162 31.02777777777778)"/><path d="M460 186c0-3.3 2.7-6 6-6h203c3.3 0 6 2.7 6 6v51c0 3.3-2.7 6-6 6H466c-3.3 0-6-2.7-6-6z" stroke="#3d9fe2" stroke-width="3" fill-opacity="0"/><use xlink:href="#e" transform="matrix(1,0,0,1,465,185) translate(37.22222222222223 31.02777777777778)"/><use xlink:href="#f" transform="matrix(1,0,0,1,465,185) translate(93.8888888888889 31.02777777777778)"/><path d="M567.5-74v71.88" stroke="#3d9fe2" stroke-width="3" fill="none"/><path d="M569-73.96h-3v-1.54h3z" stroke="#3d9fe2" stroke-width=".05" fill="#3d9fe2"/><path d="M567.5 13.65L562.86-.62h9.28z" stroke="#3d9fe2" stroke-width="3" fill="#3d9fe2"/><path d="M623.8-74v39.5c0 3.3 2.7 6 6 6h171.7c3.3 0 6 2.7 6 6v20.38" stroke="#3d9fe2" stroke-width="3" fill="none"/><path d="M625.3-73.96h-3v-1.54h3z" stroke="#3d9fe2" stroke-width=".05" fill="#3d9fe2"/><path d="M807.5 13.65L802.86-.62h9.28z" stroke="#3d9fe2" stroke-width="3" fill="#3d9fe2"/><path d="M511.2-74v39.5c0 3.3-2.7 6-6 6H333.5c-3.3 0-6 2.7-6 6v20.38" stroke="#3d9fe2" stroke-width="3" fill="none"/><path d="M512.7-73.96h-3v-1.54h3z" stroke="#3d9fe2" stroke-width=".05" fill="#3d9fe2"/><path d="M327.5 13.65L322.86-.62h9.28z" stroke="#3d9fe2" stroke-width="3" fill="#3d9fe2"/><path d="M327.5 86v39.5c0 3.3 2.7 6 6 6h171.7c3.3 0 6 2.7 6 6v20.38" stroke="#3d9fe2" stroke-width="3" fill="none"/><path d="M329 86.04h-3V84.5h3z" stroke="#3d9fe2" stroke-width=".05" fill="#3d9fe2"/><path d="M511.2 173.65l-4.64-14.27h9.27z" stroke="#3d9fe2" stroke-width="3" fill="#3d9fe2"/><path d="M807.5 86v39.5c0 3.3-2.7 6-6 6H629.8c-3.3 0-6 2.7-6 6v20.38" stroke="#3d9fe2" stroke-width="3" fill="none"/><path d="M809 86.04h-3V84.5h3z" stroke="#3d9fe2" stroke-width=".05" fill="#3d9fe2"/><path d="M623.8 173.65l-4.63-14.27h9.27z" stroke="#3d9fe2" stroke-width="3" fill="#3d9fe2"/><path d="M567.5 86v71.88" stroke="#3d9fe2" stroke-width="3" fill="none"/><path d="M569 86.04h-3V84.5h3z" stroke="#3d9fe2" stroke-width=".05" fill="#3d9fe2"/><path d="M567.5 173.65l-4.64-14.27h9.28z" stroke="#3d9fe2" stroke-width="3" fill="#3d9fe2"/><defs><path fill="#3d9fe2" d="M24-248c120-7 223 5 221 122C244-46 201 0 124 0H24v-248zM76-40c74 7 117-18 117-86 0-67-45-88-117-82v168" id="g"/><path fill="#3d9fe2" d="M133-34C117-15 103 5 69 4 32 3 11-16 11-54c-1-60 55-63 116-61 1-26-3-47-28-47-18 1-26 9-28 27l-52-2c7-38 36-58 82-57s74 22 75 68l1 82c-1 14 12 18 25 15v27c-30 8-71 5-69-32zm-48 3c29 0 43-24 42-57-32 0-66-3-65 30 0 17 8 27 23 27" id="h"/><path fill="#3d9fe2" d="M115-3C79 11 28 4 28-45v-112H4v-33h27l15-45h31v45h36v33H77v99c-1 23 16 31 38 25v30" id="i"/><g id="a"><use transform="matrix(0.06172839506172839,0,0,0.06172839506172839,0,0)" xlink:href="#g"/><use transform="matrix(0.06172839506172839,0,0,0.06172839506172839,15.987654320987653,0)" xlink:href="#h"/><use transform="matrix(0.06172839506172839,0,0,0.06172839506172839,28.333333333333332,0)" xlink:href="#i"/><use transform="matrix(0.06172839506172839,0,0,0.06172839506172839,35.67901234567901,0)" xlink:href="#h"/></g><path fill="#3d9fe2" d="M169-182c-1-43-94-46-97-3 18 66 151 10 154 114 3 95-165 93-204 36-6-8-10-19-12-30l50-8c3 46 112 56 116 5-17-69-150-10-154-114-4-87 153-88 188-35 5 8 8 18 10 28" id="j"/><path fill="#3d9fe2" d="M110-194c64 0 96 36 96 99 0 64-35 99-97 99-61 0-95-36-95-99 0-62 34-99 96-99zm-1 164c35 0 45-28 45-65 0-40-10-65-43-65-34 0-45 26-45 65 0 36 10 65 43 65" id="k"/><path fill="#3d9fe2" d="M85 4C-2 5 27-109 22-190h50c7 57-23 150 33 157 60-5 35-97 40-157h50l1 190h-47c-2-12 1-28-3-38-12 25-28 42-61 42" id="l"/><path fill="#3d9fe2" d="M135-150c-39-12-60 13-60 57V0H25l-1-190h47c2 13-1 29 3 40 6-28 27-53 61-41v41" id="m"/><path fill="#3d9fe2" d="M190-63c-7 42-38 67-86 67-59 0-84-38-90-98-12-110 154-137 174-36l-49 2c-2-19-15-32-35-32-30 0-35 28-38 64-6 74 65 87 74 30" id="n"/><path fill="#3d9fe2" d="M185-48c-13 30-37 53-82 52C43 2 14-33 14-96s30-98 90-98c62 0 83 45 84 108H66c0 31 8 55 39 56 18 0 30-7 34-22zm-45-69c5-46-57-63-70-21-2 6-4 13-4 21h74" id="o"/><path fill="#3d9fe2" d="M137-138c1-29-70-34-71-4 15 46 118 7 119 86 1 83-164 76-172 9l43-7c4 19 20 25 44 25 33 8 57-30 24-41C81-84 22-81 20-136c-2-80 154-74 161-7" id="p"/><g id="b"><use transform="matrix(0.06172839506172839,0,0,0.06172839506172839,0,0)" xlink:href="#j"/><use transform="matrix(0.06172839506172839,0,0,0.06172839506172839,14.814814814814813,0)" xlink:href="#k"/><use transform="matrix(0.06172839506172839,0,0,0.06172839506172839,28.33333333333333,0)" xlink:href="#l"/><use transform="matrix(0.06172839506172839,0,0,0.06172839506172839,41.85185185185185,0)" xlink:href="#m"/><use transform="matrix(0.06172839506172839,0,0,0.06172839506172839,50.49382716049382,0)" xlink:href="#n"/><use transform="matrix(0.06172839506172839,0,0,0.06172839506172839,62.8395061728395,0)" xlink:href="#o"/><use transform="matrix(0.06172839506172839,0,0,0.06172839506172839,75.18518518518518,0)" xlink:href="#p"/></g><path fill="#0f8" d="M275 0h-61l-44-196L126 0H64L0-248h53L97-49l45-199h58l43 199 44-199h52" id="q"/><path fill="#0f8" d="M185-48c-13 30-37 53-82 52C43 2 14-33 14-96s30-98 90-98c62 0 83 45 84 108H66c0 31 8 55 39 56 18 0 30-7 34-22zm-45-69c5-46-57-63-70-21-2 6-4 13-4 21h74" id="r"/><path fill="#0f8" d="M135-194c52 0 70 43 70 98 0 56-19 99-73 100-30 1-46-15-58-35L72 0H24l1-261h50v104c11-23 29-37 60-37zM114-30c31 0 40-27 40-66 0-37-7-63-39-63s-41 28-41 65c0 36 8 64 40 64" id="s"/><g id="c"><use transform="matrix(0.06172839506172839,0,0,0.06172839506172839,0,0)" xlink:href="#q"/><use transform="matrix(0.06172839506172839,0,0,0.06172839506172839,20.493827160493826,0)" xlink:href="#r"/><use transform="matrix(0.06172839506172839,0,0,0.06172839506172839,32.839506172839506,0)" xlink:href="#s"/></g><path fill="#0f8" d="M110-194c64 0 96 36 96 99 0 64-35 99-97 99-61 0-95-36-95-99 0-62 34-99 96-99zm-1 164c35 0 45-28 45-65 0-40-10-65-43-65-34 0-45 26-45 65 0 36 10 65 43 65" id="t"/><path fill="#0f8" d="M135-150c-39-12-60 13-60 57V0H25l-1-190h47c2 13-1 29 3 40 6-28 27-53 61-41v41" id="u"/><path fill="#0f8" d="M147 0L96-86 75-71V0H25v-261h50v150l67-79h53l-66 74L201 0h-54" id="v"/><g id="d"><use transform="matrix(0.06172839506172839,0,0,0.06172839506172839,0,0)" xlink:href="#q"/><use transform="matrix(0.06172839506172839,0,0,0.06172839506172839,20.493827160493826,0)" xlink:href="#t"/><use transform="matrix(0.06172839506172839,0,0,0.06172839506172839,34.01234567901234,0)" xlink:href="#u"/><use transform="matrix(0.06172839506172839,0,0,0.06172839506172839,42.654320987654316,0)" xlink:href="#v"/><use transform="matrix(0.06172839506172839,0,0,0.06172839506172839,54.99999999999999,0)" xlink:href="#r"/><use transform="matrix(0.06172839506172839,0,0,0.06172839506172839,67.34567901234567,0)" xlink:href="#u"/></g><path fill="#3d9fe2" d="M230 0l2-204L168 0h-37L68-204 70 0H24v-248h70l56 185 57-185h69V0h-46" id="w"/><path fill="#3d9fe2" d="M25-224v-37h50v37H25zM25 0v-190h50V0H25" id="x"/><path fill="#3d9fe2" d="M135-194c87-1 58 113 63 194h-50c-7-57 23-157-34-157-59 0-34 97-39 157H25l-1-190h47c2 12-1 28 3 38 12-26 28-41 61-42" id="y"/><g id="e"><use transform="matrix(0.06172839506172839,0,0,0.06172839506172839,0,0)" xlink:href="#w"/><use transform="matrix(0.06172839506172839,0,0,0.06172839506172839,18.456790123456788,0)" xlink:href="#h"/><use transform="matrix(0.06172839506172839,0,0,0.06172839506172839,30.80246913580247,0)" xlink:href="#x"/><use transform="matrix(0.06172839506172839,0,0,0.06172839506172839,36.97530864197531,0)" xlink:href="#y"/></g><path fill="#3d9fe2" d="M136-208V0H84v-208H4v-40h212v40h-80" id="z"/><path fill="#3d9fe2" d="M114-157C55-157 80-60 75 0H25v-261h50l-1 109c12-26 28-41 61-42 86-1 58 113 63 194h-50c-7-57 23-157-34-157" id="A"/><path fill="#3d9fe2" d="M88-194c31-1 46 15 58 34l-1-101h50l1 261h-48c-2-10 0-23-3-31C134-8 116 4 84 4 32 4 16-41 15-95c0-56 19-97 73-99zm17 164c33 0 40-30 41-66 1-37-9-64-41-64s-38 30-39 65c0 43 13 65 39 65" id="B"/><g id="f"><use transform="matrix(0.06172839506172839,0,0,0.06172839506172839,0,0)" xlink:href="#z"/><use transform="matrix(0.06172839506172839,0,0,0.06172839506172839,13.518518518518517,0)" xlink:href="#A"/><use transform="matrix(0.06172839506172839,0,0,0.06172839506172839,27.037037037037035,0)" xlink:href="#m"/><use transform="matrix(0.06172839506172839,0,0,0.06172839506172839,35.67901234567901,0)" xlink:href="#o"/><use transform="matrix(0.06172839506172839,0,0,0.06172839506172839,48.02469135802469,0)" xlink:href="#h"/><use transform="matrix(0.06172839506172839,0,0,0.06172839506172839,60.37037037037037,0)" xlink:href="#B"/></g></defs></g></svg>