<svg xmlns="http://www.w3.org/2000/svg" xmlns:xlink="http://www.w3.org/1999/xlink" xmlns:lucid="lucid" width="620" height="500"><g transform="translate(-520 -300)" lucid:page-tab-id="0_0"><path d="M830.16 321.75c.4 0 .75.34.75.75v456c0 .4-.33.75-.74.75-.42 0-.75-.34-.75-.75v-456c0-.4.34-.75.76-.75z" stroke="#3d9fe2" stroke-opacity=".25" stroke-width="1.5" fill="none"/><path d="M540 326c0-3.3 2.7-6 6-6h228c3.3 0 6 2.7 6 6v51.33c0 3.32-2.7 6-6 6H546c-3.3 0-6-2.68-6-6z" stroke="#000" stroke-opacity="0" fill="#fff" fill-opacity="0"/><use xlink:href="#a" transform="matrix(1,0,0,1,545,325) translate(60.75555555555558 36.70833333333332)"/><path d="M880 326c0-3.3 2.7-6 6-6h228c3.3 0 6 2.7 6 6v51.33c0 3.32-2.7 6-6 6H886c-3.3 0-6-2.68-6-6z" stroke="#000" stroke-opacity="0" fill="#fff" fill-opacity="0"/><use xlink:href="#b" transform="matrix(1,0,0,1,885,325) translate(60.577777777777804 36.70833333333332)"/><path d="M552.65 406c0-3.3 2.7-6 6-6h202.7c3.3 0 6 2.7 6 6v51.33c0 3.32-2.7 6-6 6h-202.7c-3.3 0-6-2.68-6-6z" stroke="#3d9fe2" stroke-width="3" fill-opacity="0"/><use xlink:href="#c" transform="matrix(1,0,0,1,557.6540713742519,405) translate(34.074074074074076 31.27777777777778)"/><use xlink:href="#d" transform="matrix(1,0,0,1,557.6540713742519,405) translate(122.90123456790123 31.27777777777778)"/><path d="M552.65 506c0-3.3 2.7-6 6-6h203.33c3.32 0 6 2.7 6 6v51.33c0 3.32-2.68 6-6 6H558.65c-3.3 0-6-2.68-6-6z" stroke="#3d9fe2" stroke-width="3" fill-opacity="0"/><use xlink:href="#e" transform="matrix(1,0,0,1,557.6540713742519,505) translate(38.37037037037038 31.27777777777778)"/><use xlink:href="#d" transform="matrix(1,0,0,1,557.6540713742519,505) translate(119.60493827160494 31.27777777777778)"/><path d="M552.02 606c0-3.3 2.68-6 6-6h203.33c3.3 0 6 2.7 6 6v51.33c0 3.32-2.7 6-6 6H558.02c-3.32 0-6-2.68-6-6z" stroke="#3d9fe2" stroke-width="3" fill-opacity="0"/><use xlink:href="#f" transform="matrix(1,0,0,1,557.017671057579,605) translate(8.061728395061735 31.27777777777778)"/><use xlink:href="#g" transform="matrix(1,0,0,1,557.017671057579,605) translate(84.48148148148148 31.27777777777778)"/><use xlink:href="#h" transform="matrix(1,0,0,1,557.017671057579,605) translate(144.91358024691357 31.27777777777778)"/><path d="M892.34 606c0-3.3 2.68-6 6-6h203.32c3.32 0 6 2.7 6 6v51.33c0 3.32-2.68 6-6 6H898.34c-3.32 0-6-2.68-6-6z" stroke="#3d9fe2" stroke-width="3" fill-opacity="0"/><use xlink:href="#i" transform="matrix(1,0,0,1,897.3358712159154,605) translate(29.018518518518533 31.27777777777778)"/><use xlink:href="#j" transform="matrix(1,0,0,1,897.3358712159154,605) translate(101.7962962962963 31.27777777777778)"/><path d="M892.34 706c0-3.3 2.68-6 6-6h203.32c3.32 0 6 2.7 6 6v51.33c0 3.32-2.68 6-6 6H898.34c-3.32 0-6-2.68-6-6z" stroke="#3d9fe2" stroke-width="3" fill-opacity="0"/><use xlink:href="#k" transform="matrix(1,0,0,1,897.3358712159154,705) translate(11.827160493827165 31.27777777777778)"/><use xlink:href="#j" transform="matrix(1,0,0,1,897.3358712159154,705) translate(118.98765432098766 31.27777777777778)"/><path d="M660 466.33v11.55" stroke="#3d9fe2" stroke-width="3" fill="none"/><path d="M661.5 466.37h-3v-1.54h3z" stroke="#3d9fe2" stroke-width=".05" fill="#3d9fe2"/><path d="M660 493.65l-4.64-14.27h9.28z" stroke="#3d9fe2" stroke-width="3" fill="#3d9fe2"/><path d="M660.32 566.33v11.55" stroke="#3d9fe2" stroke-width="3" fill="none"/><path d="M661.82 566.37h-3v-1.54h3z" stroke="#3d9fe2" stroke-width=".05" fill="#3d9fe2"/><path d="M660.32 593.65l-4.64-14.27h9.27z" stroke="#3d9fe2" stroke-width="3" fill="#3d9fe2"/><path d="M770.35 631.67h99.87" stroke="#3d9fe2" stroke-width="3" fill="none"/><path d="M770.38 633.17h-1.53v-3h1.53z" stroke="#3d9fe2" stroke-width=".05" fill="#3d9fe2"/><path d="M885.98 631.67l-14.26 4.63v-9.27z" stroke="#3d9fe2" stroke-width="3" fill="#3d9fe2"/><path d="M1000 666.33v11.55" stroke="#3d9fe2" stroke-width="3" fill="none"/><path d="M1001.5 666.37h-3v-1.54h3z" stroke="#3d9fe2" stroke-width=".05" fill="#3d9fe2"/><path d="M1000 693.65l-4.64-14.27h9.28z" stroke="#3d9fe2" stroke-width="3" fill="#3d9fe2"/><defs><path fill="#3d9fe2" d="M774-588H195c-4 0-7 3-7 7v442c0 4 3 7 7 7h579V0H195C118 0 56-62 56-139v-442c0-77 62-139 139-139h579v132" id="l"/><path fill="#3d9fe2" d="M56-719h580c77 0 140 63 140 139v194c0 76-63 139-140 139-149 0-301 2-448 0V0H56v-719zm587 333v-194c0-4-3-7-7-7H195c-4 0-7 3-7 7v194c0 4 3 7 7 7h441c4 0 7-3 7-7" id="m"/><path fill="#3d9fe2" d="M641-139v-581h133v581C774-62 711 0 635 0H193C116 0 54-62 54-139v-581h132v581c0 4 3 7 7 7h442c3 0 6-3 6-7" id="n"/><g id="a"><use transform="matrix(0.044444444444444425,0,0,0.044444444444444425,0,0)" xlink:href="#l"/><use transform="matrix(0.044444444444444425,0,0,0.044444444444444425,36.53333333333332,0)" xlink:href="#m"/><use transform="matrix(0.044444444444444425,0,0,0.044444444444444425,71.68888888888885,0)" xlink:href="#n"/></g><path fill="#3d9fe2" d="M776-581v56H643v-56c0-4-3-7-7-7H195c-4 0-7 3-7 7v442c0 4 3 7 7 7h441c4 0 7-3 7-7v-136H480v-132h296v268C776-62 713 0 636 0H195C118 0 56-62 56-139v-442c0-77 62-139 139-139h441c77 0 140 62 140 139" id="o"/><g id="b"><use transform="matrix(0.044444444444444425,0,0,0.044444444444444425,0,0)" xlink:href="#o"/><use transform="matrix(0.044444444444444425,0,0,0.044444444444444425,36.88888888888887,0)" xlink:href="#m"/><use transform="matrix(0.044444444444444425,0,0,0.044444444444444425,72.04444444444441,0)" xlink:href="#n"/></g><path fill="#3d9fe2" d="M24-248c93 1 206-16 204 79-1 75-69 88-152 82V0H24v-248zm52 121c47 0 100 7 100-41 0-47-54-39-100-39v80" id="p"/><path fill="#3d9fe2" d="M135-150c-39-12-60 13-60 57V0H25l-1-190h47c2 13-1 29 3 40 6-28 27-53 61-41v41" id="q"/><path fill="#3d9fe2" d="M185-48c-13 30-37 53-82 52C43 2 14-33 14-96s30-98 90-98c62 0 83 45 84 108H66c0 31 8 55 39 56 18 0 30-7 34-22zm-45-69c5-46-57-63-70-21-2 6-4 13-4 21h74" id="r"/><path fill="#3d9fe2" d="M135-194c53 0 70 44 70 98 0 56-19 98-73 100-31 1-45-17-59-34 3 33 2 69 2 105H25l-1-265h48c2 10 0 23 3 31 11-24 29-35 60-35zM114-30c33 0 39-31 40-66 0-38-9-64-40-64-56 0-55 130 0 130" id="s"/><path fill="#3d9fe2" d="M133-34C117-15 103 5 69 4 32 3 11-16 11-54c-1-60 55-63 116-61 1-26-3-47-28-47-18 1-26 9-28 27l-52-2c7-38 36-58 82-57s74 22 75 68l1 82c-1 14 12 18 25 15v27c-30 8-71 5-69-32zm-48 3c29 0 43-24 42-57-32 0-66-3-65 30 0 17 8 27 23 27" id="t"/><g id="c"><use transform="matrix(0.06172839506172839,0,0,0.06172839506172839,0,0)" xlink:href="#p"/><use transform="matrix(0.06172839506172839,0,0,0.06172839506172839,14.814814814814813,0)" xlink:href="#q"/><use transform="matrix(0.06172839506172839,0,0,0.06172839506172839,23.456790123456788,0)" xlink:href="#r"/><use transform="matrix(0.06172839506172839,0,0,0.06172839506172839,35.80246913580247,0)" xlink:href="#s"/><use transform="matrix(0.06172839506172839,0,0,0.06172839506172839,49.32098765432099,0)" xlink:href="#t"/><use transform="matrix(0.06172839506172839,0,0,0.06172839506172839,61.666666666666664,0)" xlink:href="#q"/><use transform="matrix(0.06172839506172839,0,0,0.06172839506172839,70.30864197530863,0)" xlink:href="#r"/></g><path fill="#3d9fe2" d="M24-248c120-7 223 5 221 122C244-46 201 0 124 0H24v-248zM76-40c74 7 117-18 117-86 0-67-45-88-117-82v168" id="u"/><path fill="#3d9fe2" d="M115-3C79 11 28 4 28-45v-112H4v-33h27l15-45h31v45h36v33H77v99c-1 23 16 31 38 25v30" id="v"/><g id="d"><use transform="matrix(0.06172839506172839,0,0,0.06172839506172839,0,0)" xlink:href="#u"/><use transform="matrix(0.06172839506172839,0,0,0.06172839506172839,15.987654320987653,0)" xlink:href="#t"/><use transform="matrix(0.06172839506172839,0,0,0.06172839506172839,28.333333333333332,0)" xlink:href="#v"/><use transform="matrix(0.06172839506172839,0,0,0.06172839506172839,35.67901234567901,0)" xlink:href="#t"/></g><path fill="#3d9fe2" d="M238-95c0 69-44 99-111 99C63 4 22-25 22-93v-155h51v151c-1 38 19 59 55 60 90 1 49-130 58-211h52v153" id="w"/><path fill="#3d9fe2" d="M25 0v-261h50V0H25" id="x"/><path fill="#3d9fe2" d="M110-194c64 0 96 36 96 99 0 64-35 99-97 99-61 0-95-36-95-99 0-62 34-99 96-99zm-1 164c35 0 45-28 45-65 0-40-10-65-43-65-34 0-45 26-45 65 0 36 10 65 43 65" id="y"/><path fill="#3d9fe2" d="M88-194c31-1 46 15 58 34l-1-101h50l1 261h-48c-2-10 0-23-3-31C134-8 116 4 84 4 32 4 16-41 15-95c0-56 19-97 73-99zm17 164c33 0 40-30 41-66 1-37-9-64-41-64s-38 30-39 65c0 43 13 65 39 65" id="z"/><g id="e"><use transform="matrix(0.06172839506172839,0,0,0.06172839506172839,0,0)" xlink:href="#w"/><use transform="matrix(0.06172839506172839,0,0,0.06172839506172839,15.987654320987653,0)" xlink:href="#s"/><use transform="matrix(0.06172839506172839,0,0,0.06172839506172839,29.50617283950617,0)" xlink:href="#x"/><use transform="matrix(0.06172839506172839,0,0,0.06172839506172839,35.67901234567901,0)" xlink:href="#y"/><use transform="matrix(0.06172839506172839,0,0,0.06172839506172839,49.19753086419753,0)" xlink:href="#t"/><use transform="matrix(0.06172839506172839,0,0,0.06172839506172839,61.54320987654321,0)" xlink:href="#z"/></g><path fill="#3d9fe2" d="M24 0v-248h52V0H24" id="A"/><path fill="#3d9fe2" d="M135-194c87-1 58 113 63 194h-50c-7-57 23-157-34-157-59 0-34 97-39 157H25l-1-190h47c2 12-1 28 3 38 12-26 28-41 61-42" id="B"/><path fill="#3d9fe2" d="M128 0H69L1-190h53L99-40l48-150h52" id="C"/><path fill="#3d9fe2" d="M147 0L96-86 75-71V0H25v-261h50v150l67-79h53l-66 74L201 0h-54" id="D"/><g id="f"><use transform="matrix(0.06172839506172839,0,0,0.06172839506172839,0,0)" xlink:href="#A"/><use transform="matrix(0.06172839506172839,0,0,0.06172839506172839,6.172839506172839,0)" xlink:href="#B"/><use transform="matrix(0.06172839506172839,0,0,0.06172839506172839,19.691358024691358,0)" xlink:href="#C"/><use transform="matrix(0.06172839506172839,0,0,0.06172839506172839,32.03703703703704,0)" xlink:href="#y"/><use transform="matrix(0.06172839506172839,0,0,0.06172839506172839,45.55555555555556,0)" xlink:href="#D"/><use transform="matrix(0.06172839506172839,0,0,0.06172839506172839,57.901234567901234,0)" xlink:href="#r"/></g><path fill="#3d9fe2" d="M231 0h-52l-39-155L100 0H48L-1-190h46L77-45c9-52 24-97 36-145h53l37 145 32-145h46" id="E"/><g id="g"><use transform="matrix(0.06172839506172839,0,0,0.06172839506172839,0,0)" xlink:href="#u"/><use transform="matrix(0.06172839506172839,0,0,0.06172839506172839,15.987654320987653,0)" xlink:href="#q"/><use transform="matrix(0.06172839506172839,0,0,0.06172839506172839,24.629629629629626,0)" xlink:href="#t"/><use transform="matrix(0.06172839506172839,0,0,0.06172839506172839,36.9753086419753,0)" xlink:href="#E"/></g><path fill="#3d9fe2" d="M67-125c0 53 21 87 73 88 37 1 54-22 65-47l45 17C233-25 199 4 140 4 58 4 20-42 15-125 8-235 124-281 211-232c18 10 29 29 36 50l-46 12c-8-25-30-41-62-41-52 0-71 34-72 86" id="F"/><path fill="#3d9fe2" d="M137-138c1-29-70-34-71-4 15 46 118 7 119 86 1 83-164 76-172 9l43-7c4 19 20 25 44 25 33 8 57-30 24-41C81-84 22-81 20-136c-2-80 154-74 161-7" id="G"/><g id="h"><use transform="matrix(0.06172839506172839,0,0,0.06172839506172839,0,0)" xlink:href="#F"/><use transform="matrix(0.06172839506172839,0,0,0.06172839506172839,15.987654320987653,0)" xlink:href="#t"/><use transform="matrix(0.06172839506172839,0,0,0.06172839506172839,28.333333333333332,0)" xlink:href="#x"/><use transform="matrix(0.06172839506172839,0,0,0.06172839506172839,34.50617283950617,0)" xlink:href="#x"/><use transform="matrix(0.06172839506172839,0,0,0.06172839506172839,40.67901234567901,0)" xlink:href="#G"/></g><path fill="#3d9fe2" d="M147 0H94L2-248h55l64 206c17-72 42-137 63-206h54" id="H"/><path fill="#3d9fe2" d="M144 0l-44-69L55 0H2l70-98-66-92h53l41 62 40-62h54l-67 91 71 99h-54" id="I"/><g id="i"><use transform="matrix(0.06172839506172839,0,0,0.06172839506172839,0,0)" xlink:href="#H"/><use transform="matrix(0.06172839506172839,0,0,0.06172839506172839,13.580246913580245,0)" xlink:href="#r"/><use transform="matrix(0.06172839506172839,0,0,0.06172839506172839,25.925925925925924,0)" xlink:href="#q"/><use transform="matrix(0.06172839506172839,0,0,0.06172839506172839,34.5679012345679,0)" xlink:href="#v"/><use transform="matrix(0.06172839506172839,0,0,0.06172839506172839,41.913580246913575,0)" xlink:href="#r"/><use transform="matrix(0.06172839506172839,0,0,0.06172839506172839,54.25925925925925,0)" xlink:href="#I"/></g><path fill="#3d9fe2" d="M169-182c-1-43-94-46-97-3 18 66 151 10 154 114 3 95-165 93-204 36-6-8-10-19-12-30l50-8c3 46 112 56 116 5-17-69-150-10-154-114-4-87 153-88 188-35 5 8 8 18 10 28" id="J"/><path fill="#3d9fe2" d="M114-157C55-157 80-60 75 0H25v-261h50l-1 109c12-26 28-41 61-42 86-1 58 113 63 194h-50c-7-57 23-157-34-157" id="K"/><g id="j"><use transform="matrix(0.06172839506172839,0,0,0.06172839506172839,0,0)" xlink:href="#J"/><use transform="matrix(0.06172839506172839,0,0,0.06172839506172839,14.814814814814813,0)" xlink:href="#K"/><use transform="matrix(0.06172839506172839,0,0,0.06172839506172839,28.33333333333333,0)" xlink:href="#t"/><use transform="matrix(0.06172839506172839,0,0,0.06172839506172839,40.679012345679006,0)" xlink:href="#z"/><use transform="matrix(0.06172839506172839,0,0,0.06172839506172839,54.197530864197525,0)" xlink:href="#r"/><use transform="matrix(0.06172839506172839,0,0,0.06172839506172839,66.5432098765432,0)" xlink:href="#q"/></g><path fill="#3d9fe2" d="M76-208v77h127v40H76V0H24v-248h183v40H76" id="L"/><path fill="#3d9fe2" d="M195-6C206 82 75 100 31 46c-4-6-6-13-8-21l49-6c3 16 16 24 34 25 40 0 42-37 40-79-11 22-30 35-61 35-53 0-70-43-70-97 0-56 18-96 73-97 30 0 46 14 59 34l2-30h47zm-90-29c32 0 41-27 41-63 0-35-9-62-40-62-32 0-39 29-40 63 0 36 9 62 39 62" id="M"/><path fill="#3d9fe2" d="M220-157c-53 9-28 100-34 157h-49v-107c1-27-5-49-29-50C55-147 81-57 75 0H25l-1-190h47c2 12-1 28 3 38 10-53 101-56 108 0 13-22 24-43 59-42 82 1 51 116 57 194h-49v-107c-1-25-5-48-29-50" id="N"/><g id="k"><use transform="matrix(0.06172839506172839,0,0,0.06172839506172839,0,0)" xlink:href="#L"/><use transform="matrix(0.06172839506172839,0,0,0.06172839506172839,13.518518518518517,0)" xlink:href="#q"/><use transform="matrix(0.06172839506172839,0,0,0.06172839506172839,22.160493827160494,0)" xlink:href="#t"/><use transform="matrix(0.06172839506172839,0,0,0.06172839506172839,34.50617283950617,0)" xlink:href="#M"/><use transform="matrix(0.06172839506172839,0,0,0.06172839506172839,48.02469135802469,0)" xlink:href="#N"/><use transform="matrix(0.06172839506172839,0,0,0.06172839506172839,67.77777777777777,0)" xlink:href="#r"/><use transform="matrix(0.06172839506172839,0,0,0.06172839506172839,80.12345679012346,0)" xlink:href="#B"/><use transform="matrix(0.06172839506172839,0,0,0.06172839506172839,93.64197530864197,0)" xlink:href="#v"/></g></defs></g></svg>